PathFileType	4	(X/Y/Z)	60_2_8_p0_0-429_filt_butterworth.trc
DataRate	CameraRate	NumFrames	NumMarkers	Units	OrigDataRate	OrigDataStartFrame	OrigNumFrames
59.0	59.0	5	27	m	59.0	53	429
Frame#	Time	RHip			RKnee			RAnkle			RBigToe			RSmallToe			RHeel			LHip			LKnee			LAnkle			LBigToe			LSmallToe			LHeel			Neck			Head			Nose			RShoulder			RElbow			RWrist			RThumb			RIndex			RPinky			LShoulder			LElbow			LWrist			LThumb			LIndex			LPinky			
		X1	Y1	Z1	X2	Y2	Z2	X3	Y3	Z3	X4	Y4	Z4	X5	Y5	Z5	X6	Y6	Z6	X7	Y7	Z7	X8	Y8	Z8	X9	Y9	Z9	X10	Y10	Z10	X11	Y11	Z11	X12	Y12	Z12	X13	Y13	Z13	X14	Y14	Z14	X15	Y15	Z15	X16	Y16	Z16	X17	Y17	Z17	X18	Y18	Z18	X19	Y19	Z19	X20	Y20	Z20	X21	Y21	Z21	X22	Y22	Z22	X23	Y23	Z23	X24	Y24	Z24	X25	Y25	Z25	X26	Y26	Z26	X27	Y27	Z27	
53	0.8983050847457628	0.33125551752010507	0.4626487414284736	-0.1862037628207085	0.31994890922129127	0.6287432702283965	0.2367578985427524	0.30851580001873247	0.7378933544211446	0.6002359088443545	0.28742575144159555	0.6554198781513093	0.69536900085908	0.36498235578804156	0.654615053383477	0.6809567552276019	0.27337507972248604	0.8745609912690038	0.6607383259014258	0.10407521654832974	0.4940337001909443	-0.19245744531001313	0.09730920255878045	0.6469696849315805	0.22623728586300712	0.0994731797206359	0.786214122597257	0.590574962608176	0.10601736282314615	0.6111210181051704	0.6665024843968889	0.054763079246752874	0.6756595027570567	0.6671799882278373	0.10780884204782042	0.8401803515057826	0.6245388084490611	0.24473779325292172	0.26853412198221377	-0.7237880673230366	0.2533353973692767	0.15298901918515195	-0.9382018414696268	0.2434556695911111	0.12501715941767055	-0.7953761143304943	0.4030369585881627	0.3018592528609223	-0.6568532621048613	0.4649478022434996	0.3337387920511743	-0.3854491879849366	0.3134138828273924	0.27489916039504486	-0.19979265170484972	0.1898760378645633	0.27920288007388283	-0.1890576207105492	0.17562667410197316	0.30075922500447316	-0.13326502824657924	0.20641785431658452	0.28702595272954956	-0.10839286211537094	0.07258378580180877	0.2797328239774911	-0.6630652477809161	0.016453250742097116	0.33404144489286147	-0.4058036585278255	0.1256332204436749	0.26289076064750433	-0.21382511043847113	0.20971330875997085	0.2730113591275565	-0.19157555845491578	0.20964631019330096	0.2916366726062144	-0.13772843320890885	0.20267740148852478	0.29916227938582257	-0.11756736426218974
54	0.9152542372881356	0.3318039717971658	0.46240097870880653	-0.1871330584794045	0.31969674677395177	0.6279932900305348	0.23560326003683835	0.3073711790794623	0.7376219518641959	0.6004517161308787	0.2878349855025682	0.6553295120040847	0.6949076413923088	0.3653371418027939	0.6560718071740484	0.680321495515533	0.27355173506287817	0.8747358687592015	0.6598886762148679	0.10421758248600713	0.4939589158380743	-0.19338160038123045	0.09711966693410362	0.6471045011858616	0.22606883090299418	0.09957173965476625	0.7864773520861139	0.5922036486377316	0.10484181295227128	0.6158657370707951	0.6664026749786507	0.054829160667724725	0.6755461632850823	0.6670557006283344	0.10787118054832587	0.8401197913423204	0.6242643219403438	0.24577716582444226	0.2651340938719657	-0.7229288707987923	0.25333389187542277	0.1530335554711717	-0.9374839899570601	0.24350747708589016	0.12496053935585782	-0.7953577133320415	0.40313149134270754	0.30216753052998163	-0.6568350122724887	0.4649594849596145	0.3339000531006249	-0.38721637118183033	0.31377773916540813	0.27472748499616617	-0.20172938375824997	0.1910559622596797	0.2758858280933026	-0.1930238162845838	0.1754695665717817	0.29502087122594967	-0.13780830259782842	0.20633560830414407	0.2867143878531843	-0.1090731703467655	0.07258897521555387	0.2797295226715898	-0.6630307070809514	0.015978011254196657	0.3352338158969724	-0.40594204214291285	0.1256380565650614	0.2620150916757525	-0.21551553760646194	0.21070303283519926	0.26886219929936983	-0.19339350669955527	0.20978329013259936	0.2900333536237179	-0.14167585614665518	0.20270887813698932	0.2991436788271307	-0.11771833795128223
55	0.9322033898305084	0.3316714463071243	0.46163808084925084	-0.18868986852940295	0.31940045260479605	0.6269635632754896	0.23410549617482757	0.30578357275447554	0.736937153630217	0.5992954417828543	0.28817933730912915	0.6551559665927511	0.6943133563263391	0.3652876792151645	0.6560665926420612	0.6792519842124626	0.2739172537709247	0.874726789567126	0.6579754103885634	0.104251622443333	0.4933140584570902	-0.19475267932147527	0.09696183625814678	0.6469911953956581	0.22601642544600786	0.09951610436498128	0.786298390567817	0.5933839204506091	0.10357391015998274	0.6179460711574364	0.6662182844830605	0.05491606648119455	0.6755203856469449	0.6669961608853293	0.10796047235420186	0.8400892798576728	0.6240161004801006	0.24618924737896958	0.26380309354875997	-0.7225730713574652	0.2533416757883512	0.15297367585273286	-0.937216670170822	0.24359600909861012	0.12515655292660174	-0.7950488628033693	0.4030897942425878	0.3019981654841205	-0.6568258345933342	0.4649853949591729	0.33376471810611014	-0.38945810280164395	0.31474784409977824	0.2746597923365993	-0.20337749729845467	0.19279192299255987	0.2730359796998387	-0.19521540247028044	0.17818221023305447	0.29096554407678604	-0.14096017234917707	0.20630406734669848	0.2863272562866984	-0.11044215245458094	0.07260718130756158	0.27972318641429333	-0.6629946444338132	0.014779846105915592	0.3383519828939585	-0.40641791639001235	0.12578186038620168	0.26122514387195905	-0.21736841082358244	0.21215864682643	0.26383165321681734	-0.1947752458538927	0.21007389192442905	0.2885438000096893	-0.14455393116544293	0.2027099018333417	0.29908123131169145	-0.11770905750506959
56	0.9491525423728814	0.33099259685233445	0.4609249713406911	-0.19026554039527455	0.319184184482199	0.6261501325274836	0.2329481125492038	0.3044688493527884	0.7360578893099757	0.5970584939424096	0.2880727815686418	0.6549598818206224	0.6938409470635487	0.36515011834949207	0.6557519792989297	0.6786465235743382	0.27425427922528756	0.8744477228674254	0.6562978627664863	0.1041186068166033	0.49243419794196974	-0.19590735352448632	0.09677330626081933	0.6464312844545929	0.22587211271597452	0.09937027929414546	0.7857932265740215	0.5938046807773842	0.10335049840740217	0.6155455655329264	0.6658294258409475	0.05491276928133464	0.6755362063459416	0.6669788487429077	0.10800285800508008	0.8400324940391053	0.6238783105878082	0.24623717558992048	0.2637823573957503	-0.7225167061281184	0.2533540532753426	0.15286309377646307	-0.937197771062598	0.2437415583706073	0.12569165398183868	-0.7942828837740605	0.4029518143458074	0.30149512105974685	-0.656822580738111	0.46502701926224266	0.33367633869318697	-0.39136272666495725	0.31635728878207714	0.2746293548180679	-0.20454323228687402	0.19461217517647542	0.27214186082375896	-0.19593170018568784	0.18252737452988893	0.28888446387001865	-0.143287812479935	0.20633540374624967	0.2863506551400579	-0.1121258109635176	0.07262742164006987	0.27970591278570717	-0.6629566328126006	0.01310468820802617	0.342711598502223	-0.4073059816327204	0.12592401887565519	0.26097752081015463	-0.2189524064314752	0.21349417567553097	0.26045018483346233	-0.1957994945500065	0.21077728797331455	0.2873282622009811	-0.1461317671191297	0.2026967159235793	0.29889083323054166	-0.11769500937971494
57	0.9661016949152542	0.3297297026710448	0.46070581312272174	-0.19099999529252892	0.3190955460482593	0.625812266041783	0.2324353073144116	0.3039468524364386	0.7361465434931025	0.5952618326339556	0.28766730183230454	0.6548542755906426	0.6936344044677655	0.36507089867554066	0.6555875545670875	0.6785423955524256	0.27443829398493247	0.8739197645624008	0.6557693518339627	0.10394956350456469	0.4917936283308323	-0.19648809292058242	0.09654625267546252	0.6456005421446286	0.2257101855200328	0.0992054840001409	0.7850642194911954	0.5936745213841459	0.10435003952076095	0.6103274171820807	0.6651812391913413	0.054506000326951354	0.6754651415665336	0.6669766700984006	0.10793638773771082	0.8400241120621612	0.6238921947914823	0.24622925510416602	0.2640597656874163	-0.722514672532437	0.25336965379852916	0.1527439039125807	-0.9372006470308343	0.24382515515659567	0.12608543803362415	-0.7932748608627735	0.40291634645064955	0.30118634822709867	-0.6568031159712879	0.464893697868058	0.3338144293522688	-0.3926710287113255	0.31844326006356904	0.27453076522092124	-0.20537965200947456	0.19573749716898695	0.27159461930579765	-0.196731747180316	0.18513302965953754	0.2851801632741262	-0.14701604685669337	0.2063686203502511	0.2875221393357478	-0.11338158937602728	0.07264280392264424	0.27967672759215906	-0.6629206261058878	0.011379519041701005	0.34711307991571727	-0.4083805098262104	0.12553550932276858	0.26207679284573265	-0.2201459678985661	0.2142074893894936	0.25948957456231725	-0.19707944147013792	0.21173077950949076	0.2855048375472669	-0.1484635142953188	0.2026489820511988	0.298485982227877	-0.11815762732116306
